<?xml version="1.0" encoding="UTF-8"?>
<svg width="195px" height="196px" viewBox="0 0 195 196" version="1.1" xmlns="http://www.w3.org/2000/svg" xmlns:xlink="http://www.w3.org/1999/xlink">
    <!-- Generator: Sketch 41.2 (35397) - http://www.bohemiancoding.com/sketch -->
    <title>Group</title>
    <desc>Created with Sketch.</desc>
    <defs></defs>
    <g stroke="none" stroke-width="1" fill="none" fill-rule="evenodd">
        <g transform="translate(97.500000, 98.000000) scale(1, -1) translate(-97.500000, -98.000000) ">
            <path d="M0,98 L0,0 L97.5,0 L195,0 L195,98 L195,196 L97.5,196 L0,196 L0,98 Z M82.9,184.4 C85.8,182.9 89.5,180 91,178.2 C93.4,175.3 94.1,175 95.8,175.9 C96.9,176.5 98.1,177 98.4,177 C98.9,177 98,157.8 97.4,157.1 C96.9,156.5 81.1,166.4 81,167.4 C81,167.9 81.7,168.8 82.6,169.5 C84,170.5 83.9,170.9 81.1,173.3 C72.5,180.5 58.6,178.4 52.3,168.8 C49.9,165.3 49.5,163.6 49.5,158 C49.5,152.4 49.9,150.7 52.3,147.2 C55.3,142.6 60.6,139.4 66.9,138.4 C70.2,137.9 71.9,138.3 76.7,140.8 C86.7,145.9 93,147.3 104.9,146.8 C114.6,146.4 116.2,146 123,142.8 C141.3,134 152.1,117.3 152.3,97.5 C152.4,86.2 149.6,77.3 142.6,66.8 L140.8,64 L150.4,64 L160,64 L160,68.1 C160,70.3 160.4,72 160.8,71.8 C162.8,71 189,54.4 189,54 C189,53.7 182.6,49.6 174.7,44.7 L160.5,36 L160.2,40 L159.9,44 L87.8,44.2 L15.7,44.5 L13.4,51.9 C12.2,56 10.9,60.3 10.6,61.6 L10,64 L62.5,64 C113.5,64 115.2,64.1 119.1,66 C131.6,72.4 139.5,88.6 136.9,102.8 C135.5,110.3 130.6,119.3 125.7,123.5 C105.2,141 73.8,130.9 67.5,104.8 C66.8,102.1 67,102 70.4,102 C72.4,102 74,101.7 74,101.4 C74,100.3 59.5,76 58.9,76 C58.2,76 44,100.4 44,101.5 C44,101.8 45.8,102 48,102 C51.3,102 52,102.4 52,103.9 C52,107.5 56,118.5 59,123.3 C60.6,125.9 62,128.2 62,128.4 C62,128.5 60.2,129.2 58.1,129.9 C52.8,131.5 44.7,139 41.6,145.2 C38,152.3 37.9,163.2 41.4,170.5 C44.3,176.9 52.7,184.5 58.9,186.5 C66.2,188.8 76.5,188 82.9,184.4 Z M89.1,34.4 C92.6,32.6 92.7,32 89.5,29 C87.5,27.2 86.7,26.9 85.8,27.8 C85.1,28.5 82.9,29 80.8,29 C75.5,29 73,26.3 73,20.6 C73,17 73.5,15.8 75.7,14 C79.3,11.2 84.4,11.6 84.8,14.7 C85.1,16.4 84.6,16.9 82.3,17.2 C79.9,17.5 79.5,18 79.5,20.5 C79.5,23.5 79.5,23.5 85.8,23.8 L92,24.1 L92,15.7 L92,7.3 L88.1,6.2 C73.4,1.8 61,11.9 64.9,25.1 C68,35.3 79.2,39.6 89.1,34.4 Z M59.2,21.6 C62.4,13.9 65,7.3 65,6.8 C65,6.4 63.2,6 60.9,6 C57.3,6 56.8,6.3 55.9,9 C54.9,11.8 54.5,12 49.5,12 C44.5,12 44.1,11.8 43.1,9 C42.2,6.3 41.7,6 38.1,6 C35.8,6 34,6.3 34,6.8 C34,7.2 36,12.3 38.4,18 C40.8,23.8 43.5,30.2 44.4,32.3 C45.8,35.9 46.2,36.1 49.7,35.8 L53.4,35.5 L59.2,21.6 Z M104.8,20.7 L105.1,5.9 L100.8,6.2 L96.5,6.5 L96.2,19.9 C96.1,27.3 96.2,34 96.5,34.8 C96.8,35.7 98.3,36 100.7,35.8 L104.5,35.5 L104.8,20.7 Z M117,24.5 L117,13 L122.5,13 L128,13 L128,9.5 L128,6 L118.5,6 L109,6 L109,21 L109,36 L113,36 L117,36 L117,24.5 Z M150,32.5 L150,29 L143.4,29 C137.2,29 136.9,28.9 137.2,26.8 C137.5,24.7 138.1,24.5 143.8,24.2 C149.9,23.9 150,23.9 150,21 L150,18 L143.5,18 C137.3,18 137,17.9 137,15.5 C137,13.2 137.3,13.1 143.8,12.8 L150.5,12.5 L150.8,9.3 L151.1,6 L140.6,6 L130,6 L130,21 L130,36 L140,36 L150,36 L150,32.5 Z" fill="#000000"></path>
            <path d="M47.8,22.2 L46.2,18 L49.1,18 C52.3,18 52.6,19 50.7,23.4 L49.4,26.3 L47.8,22.2 Z"></path>
        </g>
    </g>
</svg>