<?xml version="1.0" encoding="UTF-8"?>
<svg viewBox="0 0 179 183" version="1.1" xmlns="http://www.w3.org/2000/svg" xmlns:xlink="http://www.w3.org/1999/xlink">
    <!-- Generator: Sketch 41.2 (35397) - http://www.bohemiancoding.com/sketch -->
    <title>Group</title>
    <desc>Created with Sketch.</desc>
    <defs></defs>
    <g stroke="none" stroke-width="1" fill="#FFD602" fill-rule="evenodd">
        <g fill="#FFD602" transform="translate(89.500000, 91.500000) scale(1, -1) translate(-89.500000, -91.500000) ">
            <path fill="#FFD602" d="M72.9,179.4 C75.8,177.9 79.5,175 81,173.2 C83.4,170.3 84.1,170 85.8,170.9 C86.9,171.5 88.1,172 88.4,172 C88.9,172 88,152.8 87.4,152.1 C86.9,151.5 71.1,161.4 71,162.4 C71,162.9 71.7,163.8 72.6,164.5 C74,165.5 73.9,165.9 71.1,168.3 C62.5,175.5 48.6,173.4 42.3,163.8 C39.9,160.3 39.5,158.6 39.5,153 C39.5,147.4 39.9,145.7 42.3,142.2 C45.3,137.6 50.6,134.4 56.9,133.4 C60.2,132.9 61.9,133.3 66.7,135.8 C76.7,140.9 83,142.3 94.9,141.8 C104.6,141.4 106.2,141 113,137.8 C131.3,129 142.1,112.3 142.3,92.5 C142.4,81.2 139.6,72.3 132.6,61.8 L130.8,59 L140.4,59 L150,59 L150,63.1 C150,65.3 150.4,67 150.8,66.8 C152.8,66 179,49.4 179,49 C179,48.7 172.6,44.6 164.7,39.7 L150.5,31 L150.2,35 L149.9,39 L77.8,39.2 L5.7,39.5 L3.4,46.9 C2.2,51 0.9,55.3 0.6,56.6 L0,59 L52.5,59 C103.5,59 105.2,59.1 109.1,61 C121.6,67.4 129.5,83.6 126.9,97.8 C125.5,105.3 120.6,114.3 115.7,118.5 C95.2,136 63.8,125.9 57.5,99.8 C56.8,97.1 57,97 60.4,97 C62.4,97 64,96.7 64,96.4 C64,95.3 49.5,71 48.9,71 C48.2,71 34,95.4 34,96.5 C34,96.8 35.8,97 38,97 C41.3,97 42,97.4 42,98.9 C42,102.5 46,113.5 49,118.3 C50.6,120.9 52,123.2 52,123.4 C52,123.5 50.2,124.2 48.1,124.9 C42.8,126.5 34.7,134 31.6,140.2 C28,147.3 27.9,158.2 31.4,165.5 C34.3,171.9 42.7,179.5 48.9,181.5 C56.2,183.8 66.5,183 72.9,179.4 Z M79.1,29.4 C82.6,27.6 82.7,27 79.5,24 C77.5,22.2 76.7,21.9 75.8,22.8 C75.1,23.5 72.9,24 70.8,24 C65.5,24 63,21.3 63,15.6 C63,12 63.5,10.8 65.7,9 C69.3,6.2 74.4,6.6 74.8,9.7 C75.1,11.4 74.6,11.9 72.3,12.2 C69.9,12.5 69.5,13 69.5,15.5 C69.5,18.5 69.5,18.5 75.8,18.8 L82,19.1 L82,10.7 L82,2.3 L78.1,1.2 C63.4,-3.2 51,6.9 54.9,20.1 C58,30.3 69.2,34.6 79.1,29.4 Z M49.2,16.6 C52.4,8.9 55,2.3 55,1.8 C55,1.4 53.2,1 50.9,1 C47.3,1 46.8,1.3 45.9,4 C44.9,6.8 44.5,7 39.5,7 C34.5,7 34.1,6.8 33.1,4 C32.2,1.3 31.7,1 28.1,1 C25.8,1 24,1.3 24,1.8 C24,2.2 26,7.3 28.4,13 C30.8,18.8 33.5,25.2 34.4,27.3 C35.8,30.9 36.2,31.1 39.7,30.8 L43.4,30.5 L49.2,16.6 Z M94.8,15.7 L95.1,0.9 L90.8,1.2 L86.5,1.5 L86.2,14.9 C86.1,22.3 86.2,29 86.5,29.8 C86.8,30.7 88.3,31 90.7,30.8 L94.5,30.5 L94.8,15.7 Z M107,19.5 L107,8 L112.5,8 L118,8 L118,4.5 L118,1 L108.5,1 L99,1 L99,16 L99,31 L103,31 L107,31 L107,19.5 Z M140,27.5 L140,24 L133.4,24 C127.2,24 126.9,23.9 127.2,21.8 C127.5,19.7 128.1,19.5 133.8,19.2 C139.9,18.9 140,18.9 140,16 L140,13 L133.5,13 C127.3,13 127,12.9 127,10.5 C127,8.2 127.3,8.1 133.8,7.8 L140.5,7.5 L140.8,4.3 L141.1,1 L130.6,1 L120,1 L120,16 L120,31 L130,31 L140,31 L140,27.5 Z"></path>
            <path fill="#FFD602" d="M37.8,17.2 L36.2,13 L39.1,13 C42.3,13 42.6,14 40.7,18.4 L39.4,21.3 L37.8,17.2 Z"></path>
        </g>
    </g>
</svg>