<?xml version="1.0" encoding="utf-8"?>
<!-- Generator: Adobe Illustrator 14.0.0, SVG Export Plug-In . SVG Version: 6.00 Build 43363)  -->
<!DOCTYPE svg PUBLIC "-//W3C//DTD SVG 1.1//EN" "http://www.w3.org/Graphics/SVG/1.1/DTD/svg11.dtd">
<svg version="1.1" id="Layer_1" xmlns="http://www.w3.org/2000/svg" xmlns:xlink="http://www.w3.org/1999/xlink" x="0px" y="0px"
	 width="971px" height="112px" viewBox="0 0 971 112" enable-background="new 0 0 971 112" xml:space="preserve">
<path d="M438.427,79.381C438.191,93.02,428.382,106,409.307,106c-16.092,0-29.552-11.848-30.284-27.068
	c2.809,0.006,14.922,0,17.089,0c0.368,7.551,5.67,12.094,14.895,11.682c8.233-0.371,12.063-7.412,12.2-12.793
	c0.163-6.496-0.991-12.322-19.209-18.686c-15.567-5.438-23.064-12.043-23.064-27.146c0-15.158,14.135-24.431,26.395-24.632
	c20.357-0.332,29.785,12.785,29.495,23.744h-16.746c-0.506-5.639-6.082-9.619-12.026-9.619c-6.073,0-12.041,4.046-12.046,11.97
	c-0.008,8.59,5.206,11.687,17.729,16.153C435.617,56.68,438.729,66.965,438.427,79.381z"/>
<path d="M254.917,79.381C254.679,93.02,244.873,106,225.797,106c-16.092,0-29.553-11.848-30.285-27.068
	c2.809,0.006,14.921,0,17.088,0c0.369,7.551,5.67,12.094,14.895,11.682c8.233-0.371,12.063-7.412,12.2-12.793
	c0.164-6.496-0.992-12.322-19.209-18.686c-15.567-5.438-23.065-12.043-23.065-27.146c0-15.158,14.133-24.431,26.393-24.632
	c20.359-0.332,29.784,12.785,29.494,23.744h-16.746c-0.507-5.639-6.082-9.619-12.026-9.619c-6.073,0-12.041,4.046-12.046,11.97
	c-0.008,8.59,5.206,11.687,17.729,16.153C252.106,56.68,255.217,66.965,254.917,79.381z"/>
<g>
	<path d="M955.716,17.296l0.865,0.013c1.018,0.004,1.818-0.338,1.818-1.15c0.012-0.729-0.507-1.207-1.673-1.219
		c-0.463-0.004-0.796,0.054-1.003,0.101L955.716,17.296z M955.623,21.725l-1.814-0.015l0.06-7.847
		c0.729-0.145,1.734-0.282,3.025-0.271c1.505,0.012,2.152,0.27,2.748,0.648c0.423,0.35,0.768,0.98,0.755,1.688
		c0,0.928-0.694,1.588-1.649,1.873v0.092c0.76,0.246,1.197,0.883,1.424,1.938c0.238,1.208,0.38,1.688,0.563,1.926l-1.969-0.014
		c-0.247-0.299-0.395-0.963-0.609-1.891c-0.144-0.859-0.622-1.244-1.631-1.256l-0.869-0.006L955.623,21.725z M956.915,11.344
		c-3.471-0.031-6.086,2.776-6.113,6.248c-0.026,3.521,2.543,6.327,6.113,6.359c3.466,0.068,6.039-2.743,6.064-6.266
		c0.025-3.478-2.507-6.318-6.019-6.344L956.915,11.344L956.915,11.344z M957.031,9.738c4.515,0.042,8.001,3.576,7.97,7.965
		c-0.032,4.479-3.577,7.912-8.149,7.879c-4.521-0.041-8.101-3.521-8.067-7.996c0.043-4.395,3.676-7.879,8.194-7.848H957.031z"/>
</g>
<polygon points="681.778,10.039 667.215,10.039 667.215,102.809 718.124,102.809 718.124,89.49 682.454,89.49 681.778,88.797 "/>
<polygon points="593.927,10.04 579.367,10.04 579.367,102.809 630.269,102.809 630.269,89.49 594.603,89.471 593.927,88.797 "/>
<polygon points="310.572,24.063 309.899,23.387 285.139,23.41 285.139,10.039 350.557,10.039 350.557,23.41 325.829,23.387 
	325.15,24.063 325.139,102.809 310.572,102.795 "/>
<polygon points="809.375,10.044 758.525,10.044 758.525,102.805 809.375,102.805 809.375,89.486 773.725,89.486 773.06,88.818 
	773.055,62.756 773.725,62.092 803.404,62.092 803.404,48.574 773.725,48.574 773.055,47.91 773.055,24.073 773.725,23.404 
	809.375,23.404 "/>
<polygon points="531.692,10.044 480.844,10.044 480.844,102.805 531.692,102.805 531.692,89.486 496.046,89.486 495.377,88.818 
	495.377,62.756 496.042,62.092 525.725,62.092 525.725,48.574 496.042,48.574 495.377,47.91 495.377,24.073 496.042,23.404 
	531.692,23.404 "/>
<polygon points="157.973,10.073 107.125,10.073 107.125,102.832 157.973,102.832 157.973,89.514 122.326,89.514 121.659,88.848 
	121.655,62.789 122.326,62.117 152.009,62.117 152.009,48.604 122.326,48.604 121.655,47.936 121.655,24.104 122.326,23.434 
	157.973,23.434 "/>
<path d="M878.564,10.064c-5.64,0-19.711,0-22.398,0.521v92.188h14.584c0-1.291-0.028-39.35-0.028-39.35l0.671-0.641h7.09h0.017
	c6.599,0,8.967,4.33,11.897,10.76c3.987,8.77,5.797,16.537,9.547,29.236l15.864-0.008c-1.491-4.854-6.866-21.121-11.561-33.688
	c-2.771-7.422-6.319-11.498-10.55-12.537v-0.418c7.651-3.014,16.014-8.352,16.384-21.988c0.199-6.93-1.288-13.09-5.708-17.357
	C898.875,11.574,890.157,10.064,878.564,10.064 M871.4,48.598l-0.682-0.678V24.098l0.671-0.679l9.314-0.017
	c10.787,0,14.547,6.857,14.547,12.305c0,10.813-7.12,13.023-14.5,12.891H871.4L871.4,48.598z"/>
<path d="M31.27,10.061c-0.301,0-0.597,0.006-0.908,0.006c-5.554,0.048-19.91,0-22.552,0.479v38.267v10.561v43.268
	c2.892,0.52,17.206,0.646,23.26,0.646c14.867,0,20.351-1.67,26.254-6.926c4.75-4.289,7.101-10.789,7.101-18.813
	c0-13.756-6.399-20.008-14.616-23.061v-0.42c6.241-3.291,11.017-8.984,11.017-20.652c0-7.363-2.449-12.684-6.825-16.6
	C48.549,11.932,41.175,10.061,31.27,10.061 M23.042,48.578l-0.67-0.678l-0.016-23.816l0.673-0.676c0.926,0,1.501,0.008,2.354,0.008
	c1.984,0,3.96,0.012,6.7,0.012c10.931,0,14.324,5.475,14.324,11.904c0,7.926-3.185,13.271-13.656,13.271
	C32.506,48.604,23.042,48.578,23.042,48.578z M26.983,89.502c-2.101,0-3.346,0.006-3.956,0l-0.673-0.691V62.781l0.673-0.68
	l9.017-0.025c10.213,0,17.195,4.959,17.195,14.324c-0.005,7.371-3.37,13.102-16.384,13.146
	C30.603,89.547,28.636,89.502,26.983,89.502"/>
</svg>
