<?xml version="1.0" encoding="utf-8"?>
<!-- Generator: Adobe Illustrator 19.2.1, SVG Export Plug-In . SVG Version: 6.00 Build 0)  -->
<svg version="1.1" id="Layer_1" xmlns="http://www.w3.org/2000/svg" xmlns:xlink="http://www.w3.org/1999/xlink" x="0px" y="0px"
	 viewBox="0 0 107 13" style="enable-background:new 0 0 107 13;" xml:space="preserve">
<g>
	<path d="M104,4.6c-0.8,0-1.5-0.6-1.5-1.5c0-0.8,0.6-1.5,1.5-1.5c0.8,0,1.5,0.6,1.5,1.5S104.9,4.6,104,4.6z M104,2
		c-0.6,0-1.1,0.5-1.1,1.1s0.5,1.1,1.1,1.1s1.1-0.5,1.1-1.1C105.2,2.5,104.7,2,104,2z M104.3,3.9L104,3.3h-0.2v0.6h-0.3V2.3h0.6
		c0.3,0,0.5,0.2,0.5,0.5c0,0.2-0.1,0.4-0.3,0.4l0.3,0.6L104.3,3.9L104.3,3.9z M104.1,2.6h-0.2V3h0.2c0.1,0,0.2-0.1,0.2-0.2
		C104.3,2.7,104.2,2.6,104.1,2.6z"/>
	<path d="M4.7,9.9C4.4,9.9,4.1,9.8,4,9.6c-0.4-0.5-0.2-1.5-0.1-2H1.6c-0.1,0.8-0.1,2,0.2,2.5c0.5,0.8,1.5,1.2,2.9,1.2
		c0.9,0,2.2-0.2,3.1-1.1C8.4,9.6,8.6,8.5,8.6,8l0.6-6.3H6.9L6.2,8.1C6.2,8.5,6,9.7,4.7,9.9C4.8,9.9,4.7,9.9,4.7,9.9"/>
	<path d="M58.3,9.9c-0.3,0-0.6-0.1-0.7-0.3c-0.4-0.5-0.2-1.5-0.1-2h-2.3c-0.1,0.8-0.1,2,0.2,2.5c0.5,0.8,1.5,1.2,2.9,1.2
		c0.9,0,2.2-0.2,3.1-1.1C62,9.6,62.2,8.5,62.2,8l0.6-6.3h-2.3l-0.7,6.4C59.8,8.5,59.6,9.7,58.3,9.9C58.4,9.9,58.3,9.9,58.3,9.9"/>
	<path d="M22.3,6.7c0.3-2.9,1.7-3.5,2.8-3.5c1,0,1.6,0.5,1.7,1.4h2.4c0-0.4,0-1-0.6-1.7s-1.8-1.1-3.3-1.1c-1.7,0-2.8,0.4-3.8,1.4
		c-0.9,0.9-1.4,2.1-1.6,3.5c-0.1,1,0,2.5,0.9,3.5s2.4,1.2,3.5,1.2c1,0,2-0.2,2.7-0.5c1-0.5,1.7-1.2,1.8-2.3h-2.4
		c-0.3,0.9-1,1.4-2,1.4C23.5,10,22,9.6,22.3,6.7"/>
	<path d="M68.2,9.9c-0.7,0-1.3-0.2-1.7-0.7C66,8.6,65.8,7.7,66,6.5c0.1-1.3,0.5-2.2,1.1-2.8C67.6,3.3,68.2,3,68.9,3
		c0.8,0,1.4,0.3,1.8,0.8l0,0l0,0C71,4.3,71.3,5,71.1,6.4C70.8,9.3,69.3,9.9,68.2,9.9 M69.1,1.6c-0.7,0-2.6,0.1-3.9,1.3
		c-1.3,1.2-1.6,3.1-1.7,3.7c-0.2,1.6,0.2,2.9,1.1,3.7c0.8,0.7,1.9,1.1,3.3,1.1c1.3,0,2.5-0.4,3.4-1c1.2-0.8,1.8-2.1,2-3.8
		c0.1-0.9,0.1-2.3-0.6-3.3C72.1,2.2,70.8,1.6,69.1,1.6"/>
	<path d="M99.1,5.9l-1.8-0.5c-0.4-0.1-1.2-0.3-1.1-1.2c0-0.3,0.2-0.6,0.4-0.8c0.3-0.3,0.8-0.5,1.3-0.5c0.7,0,1.4,0.2,1.4,1.4h2.3
		c0.1-0.9-0.1-2.6-3.6-2.6c-1.3,0-2.4,0.3-3.2,0.9c-0.6,0.5-1,1.2-1.1,1.9c-0.2,1.6,1,2.2,2,2.4l2.4,0.6c0.7,0.2,1,0.6,0.9,1.2
		c0,0.4-0.2,0.7-0.4,0.9c-0.2,0.2-0.7,0.5-1.4,0.5c-1.1,0-1.7-0.5-1.7-1.5h-2.3c0,0.4,0,1.1,0.5,1.7c0.7,0.9,2.2,1.1,3.3,1.1
		c1.3,0,4.2-0.3,4.5-2.9C101.7,6.6,100.4,6.3,99.1,5.9"/>
	<path d="M45.3,7.7h6.3c0,0,0.3,0,0.4-0.3l0.2-1h-2.8l-0.1,0.5C49.2,7.2,49,7.2,49,7.2h-3.5L45.3,7.7z M41.7,7.7H45l0.2-0.8
		c0,0,0.1-0.8,1.1-0.8h5.9l0.2-1l0,0h-9C42.3,5.1,42,6,42,6L41.7,7.7z M53.9,2.1c0.3,0.7-0.4,8.3-0.9,8.9l-0.1,0.1
		c-0.8,0.4-11.5,0.4-12.4,0c-0.1,0-0.1-0.1-0.1-0.1c-0.3-0.7,0.4-8.3,0.9-8.9L41.4,2c0.9-0.4,11.5-0.4,12.3,0
		C53.8,2,53.8,2.1,53.9,2.1"/>
	<polygon points="35.5,5.9 35.6,5.7 39.2,1.8 36.5,1.8 33.1,5.9 35.7,11.1 38.5,11.1 35.6,6 	"/>
	<polygon points="29.5,11.1 31.9,11.1 32.8,1.8 30.5,1.8 	"/>
	<polygon points="84.2,1.8 82.3,1.8 82.3,1.8 81.6,8.8 78,1.8 75.1,1.8 74.2,11.1 76.2,11.1 76.9,3.8 80.6,11.1 83.3,11.1 	"/>
	<path d="M16.1,7.5h-3.2l2-4.2L16.1,7.5z M19.4,11.1l-2.6-9.3h-1.2h-1.1h-1.2l-4.5,9.3h2.3L12,9.2h4.5l0.5,1.9H19.4z"/>
	<polygon points="91.9,11.1 92.1,9.5 87.3,9.5 87.5,7.2 92.1,7.2 92.2,5.6 87.7,5.6 87.9,3.5 92.7,3.5 92.8,1.8 85.8,1.8 84.9,11.1 
			"/>
</g>
</svg>
