<?xml version="1.0" encoding="utf-8"?>
<!-- Generator: Adobe Illustrator 16.0.0, SVG Export Plug-In . SVG Version: 6.00 Build 0)  -->
<!DOCTYPE svg PUBLIC "-//W3C//DTD SVG 1.1//EN" "http://www.w3.org/Graphics/SVG/1.1/DTD/svg11.dtd">
<svg version="1.1" id="Layer_1" xmlns="http://www.w3.org/2000/svg" xmlns:xlink="http://www.w3.org/1999/xlink" x="0px" y="0px"
	 width="125px" height="29.132px" viewBox="0 0 125 29.132" enable-background="new 0 0 125 29.132" xml:space="preserve">
<g>
	<path d="M117.246,0.464l-8.852,12.218L99.291,0.464h-7.615l13.352,18.704v9.391h6.643v-9.391l13.098-18.704H117.246z
		 M97.967,22.151H81.371V0.447h-6.707v28.126h23.303V22.151z M68.387,0.416h-6.61v17.953L45.438,0.416h-6.883v28.143h6.724V10.238
		l16.498,18.321h6.61V0.416z M26.21,19.23c-0.311,0.897-0.725,1.635-1.246,2.222c-0.331,0.37-0.426,0.434-0.628,0.582
		c-0.123,0.09-0.313,0.201-0.554,0.324c-0.558,0.286-1.278,0.511-2.173,0.674c-1.266,0.231-2.825,0.352-4.679,0.352
		c-1.873,0-3.445-0.121-4.71-0.352c-0.885-0.163-1.608-0.383-2.174-0.674c-0.18-0.113-0.357-0.229-0.525-0.346
		c-0.146-0.101-0.33-0.194-0.672-0.578c-0.501-0.565-0.909-1.307-1.228-2.236c-0.438-1.28-0.655-2.821-0.655-4.631
		c0-1.8,0.222-3.35,0.669-4.648C7.943,9.003,8.353,8.264,8.864,7.7c0.329-0.373,0.509-0.518,0.677-0.628
		c0.179-0.12,0.268-0.178,0.521-0.3c0.549-0.262,1.268-0.499,2.172-0.669c1.246-0.236,2.81-0.353,4.695-0.353
		c1.831,0,3.397,0.124,4.696,0.367c0.916,0.172,1.635,0.408,2.173,0.671c0.57,0.28,0.839,0.542,1.181,0.926
		c0.522,0.586,0.939,1.326,1.246,2.221c0.437,1.266,0.656,2.811,0.656,4.632C26.88,16.378,26.657,17.931,26.21,19.23z M32.727,6.805
		c-0.535-1.545-1.227-2.79-2.078-3.74c-0.567-0.63-0.872-0.848-1.049-0.964c-0.285-0.188-0.614-0.374-1.01-0.552
		c-0.915-0.411-2.169-0.739-3.754-1.007C22.674,0.182,20.038,0,16.929,0c-3.054,0-5.701,0.187-7.937,0.559
		C7.406,0.827,6.149,1.148,5.239,1.566C4.88,1.731,4.713,1.82,4.378,2.033c-0.179,0.112-0.635,0.396-1.2,1.033
		c-0.862,0.972-1.554,2.217-2.076,3.74C0.369,8.935,0,11.522,0,14.567c0,3.012,0.373,5.605,1.117,7.778
		c0.524,1.519,1.216,2.768,2.077,3.735c0.564,0.638,0.85,0.836,1.128,1.004c0.307,0.183,0.547,0.346,0.917,0.5
		c0.953,0.398,2.202,0.75,3.768,1.002c2.194,0.364,4.835,0.544,7.922,0.544c3.086,0,5.729-0.181,7.921-0.544
		c1.545-0.252,2.789-0.593,3.74-1.002c0.25-0.108,0.554-0.287,0.859-0.498c0.451-0.312,0.906-0.693,1.2-1.021
		c0.856-0.955,1.543-2.204,2.078-3.739c0.743-2.159,1.117-4.748,1.117-7.76C33.844,11.543,33.47,8.956,32.727,6.805"/>
</g>
</svg>
