<?xml version="1.0" encoding="iso-8859-1"?>
<!-- Generator: Adobe Illustrator 19.0.0, SVG Export Plug-In . SVG Version: 6.00 Build 0)  -->
<svg version="1.1" id="Layer_1" xmlns="http://www.w3.org/2000/svg" xmlns:xlink="http://www.w3.org/1999/xlink" x="0px" y="0px"
	 viewBox="0 0 470 470" style="enable-background:new 0 0 470 470;" xml:space="preserve">
<g>
	<g id="XMLID_30_">
		<g>
			<path style="fill:#15ACE5;" d="M422.133,308.432C444.855,323.137,460,348.593,460,377.683C460,423.118,423.119,460,377.684,460
				c-30.291,0-56.637-16.356-70.902-40.719c-22.391,8.446-46.539,13.28-71.781,13.28c-112.178,0-203.049-90.881-203.049-203.049
				c0-24.695,4.609-48.292,12.734-70.136C23.719,144.451,10,119.976,10,92.317C10,46.877,46.871,10,92.316,10
				c26.453,0,49.938,12.514,64.975,31.94c23.924-9.989,50.162-15.477,77.709-15.477c112.168,0,203.049,90.876,203.049,203.049
				C438.049,257.498,432.348,284.176,422.133,308.432z"/>
		</g>
		<path style="fill:#231F20;" d="M434.331,304.847c9.106-24.096,13.718-49.398,13.718-75.335
			c0-56.923-22.157-110.428-62.391-150.661C345.426,38.62,291.921,16.463,235,16.463c-25.806,0-50.898,4.546-74.702,13.524
			C142.845,10.84,118.466,0,92.316,0C41.413,0,0,41.414,0,92.317c0,27.214,12.157,53.053,32.858,70.529
			c-7.24,21.684-10.907,44.076-10.907,66.666c0,56.921,22.156,110.426,62.387,150.658c40.231,40.233,93.738,62.391,150.662,62.391
			c22.852,0,45.588-3.768,67.703-11.209C319.896,455.379,347.917,470,377.684,470C428.587,470,470,428.586,470,377.683
			C470,349.024,456.808,322.362,434.331,304.847z M377.684,450c-25.491,0-49.353-13.707-62.272-35.772
			c-1.839-3.139-5.167-4.948-8.633-4.948c-1.177,0-2.37,0.209-3.526,0.645c-22.229,8.385-45.192,12.636-68.252,12.636
			c-51.582,0-100.065-20.077-136.52-56.533c-36.454-36.455-56.529-84.937-56.529-136.516c0-22.627,4.073-45.051,12.107-66.649
			c1.576-4.24,0.111-9.01-3.574-11.633C31.396,137.642,20,115.618,20,92.317C20,52.441,52.441,20,92.316,20
			c22.463,0,43.263,10.228,57.066,28.062c2.769,3.575,7.59,4.849,11.762,3.107c23.368-9.758,48.217-14.705,73.855-14.705
			c51.579,0,100.061,20.076,136.517,56.531c36.455,36.455,56.532,84.938,56.532,136.518c0,25.949-5.091,51.195-15.132,75.038
			c-1.882,4.468-0.287,9.643,3.782,12.277C437.551,330.322,450,353.071,450,377.683C450,417.559,417.559,450,377.684,450z"/>
	</g>
	<g>
		<path style="fill:#FFFFFF;" d="M238.912,355.731c-66.615,0-99.938-24.984-110.195-56.378
			c-10.246-31.372,12.176-40.354,19.229-41.008c7.053-0.633,21.994,1.083,26.26,14.095c4.438,13.548,19.219,40.376,51.256,43.57
			c32.025,3.194,53.184-11.533,59.584-26.893c6.387-15.381-5.146-36.528-54.461-43.57c-49.326-7.053-100.58-28.832-100.58-78.158
			s56.377-69.187,110.184-69.187c53.816,0,81.105,30.387,87.131,42.284c7.471,14.732,4.918,39.277-12.82,43.554
			c-18.564,4.486-28.178-5.767-41.641-30.74c-13.912-25.847-63.41-19.212-80.076-4.486c-16.646,14.738-12.166,35.874,57.021,49.321
			c69.197,13.462,94.803,38.436,94.803,77.521C344.605,314.723,305.527,355.731,238.912,355.731z"/>
	</g>
</g>
<g>
</g>
<g>
</g>
<g>
</g>
<g>
</g>
<g>
</g>
<g>
</g>
<g>
</g>
<g>
</g>
<g>
</g>
<g>
</g>
<g>
</g>
<g>
</g>
<g>
</g>
<g>
</g>
<g>
</g>
</svg>
